<mxfile host="app.diagrams.net" modified="2020-12-12T23:25:48.235Z" agent="5.0 (Windows)" etag="UYfbJ-JKYs87sJwSyZsT" version="14.0.1" type="github">
  <diagram id="X7u0g1ZM7QvqLgqPCPlT" name="Page-1">
    <mxGraphModel dx="782" dy="398" grid="1" gridSize="10" guides="1" tooltips="1" connect="1" arrows="1" fold="1" page="1" pageScale="1" pageWidth="850" pageHeight="1100" math="0" shadow="0">
      <root>
        <mxCell id="0" />
        <mxCell id="1" parent="0" />
        <mxCell id="olIbsoz4N34cVF9OGXnP-1" value="User&lt;br&gt;" style="shape=umlActor;verticalLabelPosition=bottom;verticalAlign=top;html=1;outlineConnect=0;" parent="1" vertex="1">
          <mxGeometry x="60" y="300" width="30" height="60" as="geometry" />
        </mxCell>
        <mxCell id="olIbsoz4N34cVF9OGXnP-3" value="" style="verticalLabelPosition=bottom;verticalAlign=top;html=1;shape=mxgraph.basic.rect;fillColor2=none;strokeWidth=1;size=20;indent=5;direction=south;" parent="1" vertex="1">
          <mxGeometry x="230" y="20" width="320" height="620" as="geometry" />
        </mxCell>
        <mxCell id="olIbsoz4N34cVF9OGXnP-5" value="Authentication" style="strokeWidth=2;html=1;shape=mxgraph.flowchart.start_1;whiteSpace=wrap;" parent="1" vertex="1">
          <mxGeometry x="315" y="50" width="130" height="50" as="geometry" />
        </mxCell>
        <mxCell id="olIbsoz4N34cVF9OGXnP-6" value="Log in" style="strokeWidth=2;html=1;shape=mxgraph.flowchart.start_1;whiteSpace=wrap;" parent="1" vertex="1">
          <mxGeometry x="250" y="150" width="90" height="40" as="geometry" />
        </mxCell>
        <mxCell id="olIbsoz4N34cVF9OGXnP-7" value="Sign up" style="strokeWidth=2;html=1;shape=mxgraph.flowchart.start_1;whiteSpace=wrap;" parent="1" vertex="1">
          <mxGeometry x="410" y="150" width="90" height="40" as="geometry" />
        </mxCell>
        <mxCell id="olIbsoz4N34cVF9OGXnP-9" value="" style="endArrow=none;dashed=1;html=1;exitX=0.5;exitY=0;exitDx=0;exitDy=0;exitPerimeter=0;entryX=0.145;entryY=0.855;entryDx=0;entryDy=0;entryPerimeter=0;" parent="1" source="olIbsoz4N34cVF9OGXnP-6" target="olIbsoz4N34cVF9OGXnP-5" edge="1">
          <mxGeometry width="50" height="50" relative="1" as="geometry">
            <mxPoint x="300" y="140" as="sourcePoint" />
            <mxPoint x="340" y="90" as="targetPoint" />
          </mxGeometry>
        </mxCell>
        <mxCell id="olIbsoz4N34cVF9OGXnP-15" value="" style="endArrow=none;dashed=1;html=1;entryX=0.855;entryY=0.855;entryDx=0;entryDy=0;entryPerimeter=0;" parent="1" target="olIbsoz4N34cVF9OGXnP-5" edge="1">
          <mxGeometry width="50" height="50" relative="1" as="geometry">
            <mxPoint x="455" y="150" as="sourcePoint" />
            <mxPoint x="425" y="90" as="targetPoint" />
          </mxGeometry>
        </mxCell>
        <mxCell id="olIbsoz4N34cVF9OGXnP-16" value="include" style="text;html=1;resizable=0;autosize=1;align=center;verticalAlign=middle;points=[];fillColor=none;strokeColor=none;rounded=0;rotation=305;direction=east;" parent="1" vertex="1">
          <mxGeometry x="280" y="110" width="50" height="20" as="geometry" />
        </mxCell>
        <mxCell id="olIbsoz4N34cVF9OGXnP-18" value="include" style="text;html=1;resizable=0;autosize=1;align=center;verticalAlign=middle;points=[];fillColor=none;strokeColor=none;rounded=0;rotation=65;" parent="1" vertex="1">
          <mxGeometry x="425" y="110" width="50" height="20" as="geometry" />
        </mxCell>
        <mxCell id="olIbsoz4N34cVF9OGXnP-19" value="Community" style="strokeWidth=2;html=1;shape=mxgraph.flowchart.start_1;whiteSpace=wrap;" parent="1" vertex="1">
          <mxGeometry x="320" y="520" width="130" height="60" as="geometry" />
        </mxCell>
        <mxCell id="olIbsoz4N34cVF9OGXnP-20" value="Activities" style="strokeWidth=2;html=1;shape=mxgraph.flowchart.start_1;whiteSpace=wrap;" parent="1" vertex="1">
          <mxGeometry x="320" y="450" width="130" height="62.5" as="geometry" />
        </mxCell>
        <mxCell id="olIbsoz4N34cVF9OGXnP-21" value="Workouts" style="strokeWidth=2;html=1;shape=mxgraph.flowchart.start_1;whiteSpace=wrap;" parent="1" vertex="1">
          <mxGeometry x="317.5" y="370" width="132.5" height="60" as="geometry" />
        </mxCell>
        <mxCell id="olIbsoz4N34cVF9OGXnP-22" value="Complete profile info" style="strokeWidth=2;html=1;shape=mxgraph.flowchart.start_1;whiteSpace=wrap;" parent="1" vertex="1">
          <mxGeometry x="250" y="310" width="100" height="45" as="geometry" />
        </mxCell>
        <mxCell id="LyJIlv4ja3EHjR3H1L-G-10" style="edgeStyle=orthogonalEdgeStyle;rounded=0;orthogonalLoop=1;jettySize=auto;html=1;" edge="1" parent="1">
          <mxGeometry relative="1" as="geometry">
            <mxPoint x="150" y="352.5" as="sourcePoint" />
            <mxPoint x="320" y="548" as="targetPoint" />
            <Array as="points">
              <mxPoint x="170" y="352.5" />
              <mxPoint x="170" y="547.5" />
            </Array>
          </mxGeometry>
        </mxCell>
        <mxCell id="LyJIlv4ja3EHjR3H1L-G-11" style="edgeStyle=orthogonalEdgeStyle;rounded=0;orthogonalLoop=1;jettySize=auto;html=1;" edge="1" parent="1">
          <mxGeometry relative="1" as="geometry">
            <mxPoint x="320" y="478" as="targetPoint" />
            <mxPoint x="150" y="352.5" as="sourcePoint" />
            <Array as="points">
              <mxPoint x="190" y="352.5" />
              <mxPoint x="190" y="477.5" />
            </Array>
          </mxGeometry>
        </mxCell>
        <mxCell id="LyJIlv4ja3EHjR3H1L-G-13" style="edgeStyle=orthogonalEdgeStyle;rounded=0;orthogonalLoop=1;jettySize=auto;html=1;" edge="1" parent="1">
          <mxGeometry relative="1" as="geometry">
            <mxPoint x="320" y="402.5" as="targetPoint" />
            <mxPoint x="140" y="352.5" as="sourcePoint" />
            <Array as="points">
              <mxPoint x="140" y="352.5" />
              <mxPoint x="200" y="352.5" />
              <mxPoint x="200" y="402.5" />
            </Array>
          </mxGeometry>
        </mxCell>
        <mxCell id="LyJIlv4ja3EHjR3H1L-G-14" style="edgeStyle=orthogonalEdgeStyle;rounded=0;orthogonalLoop=1;jettySize=auto;html=1;entryX=0;entryY=0.5;entryDx=0;entryDy=0;entryPerimeter=0;" edge="1" parent="1" target="LyJIlv4ja3EHjR3H1L-G-17">
          <mxGeometry relative="1" as="geometry">
            <mxPoint x="110" y="353" as="sourcePoint" />
            <mxPoint x="240" y="382.5" as="targetPoint" />
            <Array as="points">
              <mxPoint x="210" y="353" />
              <mxPoint x="210" y="235" />
            </Array>
          </mxGeometry>
        </mxCell>
        <mxCell id="LyJIlv4ja3EHjR3H1L-G-15" style="edgeStyle=orthogonalEdgeStyle;rounded=0;orthogonalLoop=1;jettySize=auto;html=1;entryX=0;entryY=0.5;entryDx=0;entryDy=0;entryPerimeter=0;" edge="1" parent="1" target="olIbsoz4N34cVF9OGXnP-5">
          <mxGeometry relative="1" as="geometry">
            <mxPoint x="150" y="350" as="sourcePoint" />
            <mxPoint x="345" y="115" as="targetPoint" />
            <Array as="points">
              <mxPoint x="150" y="75" />
            </Array>
          </mxGeometry>
        </mxCell>
        <mxCell id="LyJIlv4ja3EHjR3H1L-G-16" value="View profile" style="strokeWidth=2;html=1;shape=mxgraph.flowchart.start_1;whiteSpace=wrap;" vertex="1" parent="1">
          <mxGeometry x="410" y="307.5" width="95" height="45" as="geometry" />
        </mxCell>
        <mxCell id="LyJIlv4ja3EHjR3H1L-G-17" value="Manage profile" style="strokeWidth=2;html=1;shape=mxgraph.flowchart.start_1;whiteSpace=wrap;" vertex="1" parent="1">
          <mxGeometry x="310" y="210" width="135" height="50" as="geometry" />
        </mxCell>
        <mxCell id="LyJIlv4ja3EHjR3H1L-G-18" value="" style="endArrow=none;dashed=1;html=1;exitX=0.5;exitY=0;exitDx=0;exitDy=0;exitPerimeter=0;entryX=0.145;entryY=0.855;entryDx=0;entryDy=0;entryPerimeter=0;" edge="1" parent="1" source="olIbsoz4N34cVF9OGXnP-22" target="LyJIlv4ja3EHjR3H1L-G-17">
          <mxGeometry width="50" height="50" relative="1" as="geometry">
            <mxPoint x="290" y="305" as="sourcePoint" />
            <mxPoint x="340" y="255" as="targetPoint" />
          </mxGeometry>
        </mxCell>
        <mxCell id="LyJIlv4ja3EHjR3H1L-G-19" value="" style="endArrow=none;dashed=1;html=1;exitX=0.5;exitY=0;exitDx=0;exitDy=0;exitPerimeter=0;entryX=0.933;entryY=0.82;entryDx=0;entryDy=0;entryPerimeter=0;" edge="1" parent="1" source="LyJIlv4ja3EHjR3H1L-G-16" target="LyJIlv4ja3EHjR3H1L-G-17">
          <mxGeometry width="50" height="50" relative="1" as="geometry">
            <mxPoint x="445" y="290" as="sourcePoint" />
            <mxPoint x="495" y="240" as="targetPoint" />
          </mxGeometry>
        </mxCell>
        <mxCell id="LyJIlv4ja3EHjR3H1L-G-20" value="include" style="text;html=1;resizable=0;autosize=1;align=center;verticalAlign=middle;points=[];fillColor=none;strokeColor=none;rounded=0;rotation=297;" vertex="1" parent="1">
          <mxGeometry x="280" y="270" width="50" height="20" as="geometry" />
        </mxCell>
        <mxCell id="LyJIlv4ja3EHjR3H1L-G-21" value="include" style="text;html=1;resizable=0;autosize=1;align=center;verticalAlign=middle;points=[];fillColor=none;strokeColor=none;rounded=0;rotation=70;" vertex="1" parent="1">
          <mxGeometry x="430" y="260" width="50" height="20" as="geometry" />
        </mxCell>
      </root>
    </mxGraphModel>
  </diagram>
</mxfile>
